<svg xmlns="http://www.w3.org/2000/svg" width="67" height="67" viewBox="0 0 67 67">
  <path fill="#FFF" fill-rule="evenodd" d="M1807,47 L1824,47 L1824,64 L1807,64 L1807,47 Z M1807,72 L1824,72 L1824,89 L1807,89 L1807,72 Z M1807,97 L1824,97 L1824,114 L1807,114 L1807,97 Z M1832,47 L1849,47 L1849,64 L1832,64 L1832,47 Z M1832,72 L1849,72 L1849,89 L1832,89 L1832,72 Z M1832,97 L1849,97 L1849,114 L1832,114 L1832,97 Z M1857,47 L1874,47 L1874,64 L1857,64 L1857,47 Z M1857,72 L1874,72 L1874,89 L1857,89 L1857,72 Z M1857,97 L1874,97 L1874,114 L1857,114 L1857,97 Z" transform="translate(-1807 -47)"/>
</svg>
